<?xml version="1.0" encoding="UTF-8"?>
<!DOCTYPE svg PUBLIC "-//W3C//DTD SVG 1.1//EN" "http://www.w3.org/Graphics/SVG/1.1/DTD/svg11.dtd">
<svg xmlns="http://www.w3.org/2000/svg" version="1.1" width="52px" height="52px" style="shape-rendering:geometricPrecision; text-rendering:geometricPrecision; image-rendering:optimizeQuality; fill-rule:evenodd; clip-rule:evenodd" xmlns:xlink="http://www.w3.org/1999/xlink">
<g><path style="opacity:1" fill="#000000" d="M -0.5,-0.5 C 16.8333,-0.5 34.1667,-0.5 51.5,-0.5C 51.5,16.8333 51.5,34.1667 51.5,51.5C 34.1667,51.5 16.8333,51.5 -0.5,51.5C -0.5,34.1667 -0.5,16.8333 -0.5,-0.5 Z M 0.5,0.5 C 17.1667,0.5 33.8333,0.5 50.5,0.5C 50.5,17.1667 50.5,33.8333 50.5,50.5C 33.8333,50.5 17.1667,50.5 0.5,50.5C 0.5,33.8333 0.5,17.1667 0.5,0.5 Z"/></g>
<g><path style="opacity:1" fill="#030200" d="M 18.5,6.5 C 22.5138,6.33449 26.5138,6.50115 30.5,7C 31,7.5 31.5,8 32,8.5C 33.4455,17.7264 33.9455,27.0598 33.5,36.5C 36.0861,37.5943 41.4195,37.9276 49.5,37.5C 49.5,40.8333 49.5,44.1667 49.5,47.5C 33.5,47.5 17.5,47.5 1.5,47.5C 1.5,44.1667 1.5,40.8333 1.5,37.5C 8.93798,37.9629 13.6046,37.6296 15.5,36.5C 15.3336,27.8269 15.5002,19.1603 16,10.5C 16.6622,9.01608 17.4955,7.68275 18.5,6.5 Z"/></g>
<g><path style="opacity:1" fill="#534e4d" d="M 18.5,8.5 C 22.5546,8.17575 26.5546,8.50909 30.5,9.5C 31.4699,17.778 31.8032,26.1114 31.5,34.5C 26.8333,34.5 22.1667,34.5 17.5,34.5C 17.2246,25.7794 17.5579,17.1127 18.5,8.5 Z"/></g>
<g><path style="opacity:1" fill="#ac9600" d="M 22.5,12.5 C 30.3473,13.8951 31.3473,17.2284 25.5,22.5C 25.9767,23.4776 26.6433,24.3109 27.5,25C 27.8696,26.6097 27.2029,28.1097 25.5,29.5C 25.9767,30.4776 26.6433,31.3109 27.5,32C 26.2341,32.3095 25.0674,32.8095 24,33.5C 23.8265,29.4592 23.3265,25.4592 22.5,21.5C 18.6284,18.5982 18.6284,15.5982 22.5,12.5 Z"/></g>
<g><path style="opacity:1" fill="#534e4d" d="M 23.5,15.5 C 26.8606,16.2032 27.1939,17.5365 24.5,19.5C 22.3576,18.5629 22.0243,17.2296 23.5,15.5 Z"/></g>
<g><path style="opacity:1" fill="#dacbca" d="M 20.5,36.5 C 23.1667,36.5 25.8333,36.5 28.5,36.5C 28.6495,37.552 28.4828,38.552 28,39.5C 25.6667,39.5 23.3333,39.5 21,39.5C 20.5172,38.552 20.3505,37.552 20.5,36.5 Z"/></g>
<g><path style="opacity:1" fill="#776e6e" d="M 37.5,39.5 C 36.8333,40.8333 35.8333,41.8333 34.5,42.5C 33.7109,42.7828 33.0442,43.2828 32.5,44C 35.0385,44.7958 37.3718,44.6291 39.5,43.5C 40.5,41.8333 41.8333,40.5 43.5,39.5C 45.0418,38.6993 46.7085,38.366 48.5,38.5C 48.5,41.1667 48.5,43.8333 48.5,46.5C 33.1667,46.5 17.8333,46.5 2.5,46.5C 2.5,43.8333 2.5,41.1667 2.5,38.5C 9.8762,38.6009 17.2095,39.2676 24.5,40.5C 28.1001,40.2801 31.6001,39.6134 35,38.5C 36.0698,38.528 36.9032,38.8614 37.5,39.5 Z"/></g>
<g><path style="opacity:1" fill="#850b1b" d="M 43.5,39.5 C 41.8333,40.5 40.5,41.8333 39.5,43.5C 37.7168,42.8254 36.0502,42.4921 34.5,42.5C 35.8333,41.8333 36.8333,40.8333 37.5,39.5C 39.6678,39.1661 41.6678,39.1661 43.5,39.5 Z"/></g>
<g><path style="opacity:1" fill="#000000" d="M 34.5,42.5 C 36.0502,42.4921 37.7168,42.8254 39.5,43.5C 37.3718,44.6291 35.0385,44.7958 32.5,44C 33.0442,43.2828 33.7109,42.7828 34.5,42.5 Z"/></g>
</svg>
