<?xml version="1.0" standalone="no"?>
<!DOCTYPE svg PUBLIC "-//W3C//DTD SVG 20010904//EN"
 "http://www.w3.org/TR/2001/REC-SVG-20010904/DTD/svg10.dtd">
<svg version="1.0" xmlns="http://www.w3.org/2000/svg"
 width="52.000000pt" height="52.000000pt" viewBox="0 0 52.000000 52.000000"
 preserveAspectRatio="xMidYMid meet">

<g transform="translate(0.000000,52.000000) scale(0.100000,-0.100000)"
fill="#000000" stroke="none">
<path d="M0 260 l0 -260 260 0 260 0 0 260 0 260 -260 0 -260 0 0 -260z m510
0 l0 -250 -250 0 -250 0 0 250 0 250 250 0 250 0 0 -250z"/>
<path d="M176 428 c-13 -18 -16 -51 -16 -150 0 -123 1 -127 23 -131 12 -2 -20
-5 -70 -6 l-93 -1 0 -50 0 -50 240 0 240 0 0 50 0 50 -102 1 c-57 1 -93 4 -80
6 21 4 22 8 22 131 0 161 -6 172 -90 172 -49 0 -61 -4 -74 -22z m106 -55 c24
-22 23 -48 -4 -67 -16 -11 -18 -18 -10 -28 17 -21 18 -24 3 -41 -10 -13 -11
-20 -2 -31 9 -11 7 -15 -9 -19 -18 -5 -20 0 -20 52 0 45 -4 59 -20 69 -24 15
-26 39 -3 64 20 22 41 23 65 1z m8 -236 c0 -8 -14 -12 -40 -12 -26 0 -40 4
-40 12 0 8 14 13 40 13 26 0 40 -5 40 -13z"/>
<path d="M234 349 c-10 -17 13 -36 27 -22 12 12 4 33 -11 33 -5 0 -12 -5 -16
-11z"/>
</g>
</svg>
